<svg xmlns="http://www.w3.org/2000/svg" viewBox="0 0 63.18 62.22"><defs><style>.cls-1{fill:#d2e0de;}.cls-1,.cls-2,.cls-3{fill-rule:evenodd;}.cls-2{fill:#fff;}.cls-3{fill:#9a86b3;}</style></defs><g id="Camada_2" data-name="Camada 2"><g id="_21" data-name="21"><polygon class="cls-1" points="39.86 11.28 51.62 23.04 53.24 21.32 41.58 9.56 39.86 11.28"/><path class="cls-1" d="M54.77,0a8.48,8.48,0,0,1,8.41,8.41,8.55,8.55,0,0,1-1.72,5.07l-3.34,3.34L46.36,5.06,49.7,1.72A8.79,8.79,0,0,1,54.77,0Z"/><polygon class="cls-2" points="43.11 8.03 54.87 19.79 56.49 18.07 44.83 6.41 43.11 8.03"/><path class="cls-2" d="M38,12.62,5,45.6a2.1,2.1,0,0,0-.48.76L.1,59.45a1.38,1.38,0,0,0-.1.67H0a1.89,1.89,0,0,0,.67,1.53,1.94,1.94,0,0,0,1.43.57,2.26,2.26,0,0,0,.77-.09l13-4.4a1.28,1.28,0,0,0,.76-.47l33-33Z"/><polygon class="cls-3" points="43.2 21.89 15.96 49.13 12.62 45.79 39.76 18.54 43.2 21.89"/></g></g></svg>