<svg width="36" height="27" viewBox="0 0 36 27" fill="none" xmlns="http://www.w3.org/2000/svg">
<path d="M1.28571 5.19643H34.7143C35.4244 5.19643 36 4.71676 36 4.125V1.44643C36 0.854666 35.4244 0.375 34.7143 0.375H1.28571C0.575599 0.375 0 0.854666 0 1.44643V4.125C0 4.71676 0.575599 5.19643 1.28571 5.19643ZM1.28571 15.9106H34.7143C35.4244 15.9106 36 15.4311 36 14.8393V12.1607C36 11.5689 35.4244 11.0893 34.7143 11.0893H1.28571C0.575599 11.0893 0 11.5689 0 12.1607V14.8393C0 15.4311 0.575599 15.9106 1.28571 15.9106ZM1.28571 26.625H34.7143C35.4244 26.625 36 26.1453 36 25.5536V22.875C36 22.2833 35.4244 21.8036 34.7143 21.8036H1.28571C0.575599 21.8036 0 22.2833 0 22.875V25.5536C0 26.1453 0.575599 26.625 1.28571 26.625Z" fill="white"/>
</svg>
